<svg width="35" height="29" viewBox="0 0 35 29" fill="none" xmlns="http://www.w3.org/2000/svg">
<path d="M20.765 8.32251H13.735V20.9614H20.765V8.32251Z" fill="#FF5F00"/>
<path d="M14.1813 14.6416C14.1813 12.0737 15.3864 9.79599 17.2388 8.32226C15.8776 7.25033 14.159 6.60278 12.2844 6.60278C7.84309 6.60278 4.25 10.1979 4.25 14.6416C4.25 19.0854 7.84309 22.6805 12.2844 22.6805C14.159 22.6805 15.8776 22.0329 17.2388 20.9611C15.3865 19.5096 14.1813 17.2096 14.1813 14.6416Z" fill="#EB001B"/>
<path d="M30.2501 14.6416C30.2501 19.0854 26.6569 22.6805 22.2157 22.6805C20.3411 22.6805 18.6226 22.0329 17.2612 20.9611C19.1359 19.4874 20.3188 17.2097 20.3188 14.6417C20.3188 12.0738 19.1136 9.79609 17.2612 8.32237C18.6226 7.25033 20.341 6.60278 22.2157 6.60278C26.6569 6.60278 30.2501 10.2203 30.2501 14.6416Z" fill="#F79E1B"/>
</svg>
