<svg width="51" height="29" viewBox="0 0 51 29" fill="none" xmlns="http://www.w3.org/2000/svg">
<g clip-path="url(#clip0_520_3243)">
<path fill-rule="evenodd" clip-rule="evenodd" d="M41.8942 8.38232H33.7926C34.2282 11.1543 36.8416 13.7474 39.7163 13.7474H46.1627C46.2498 13.4792 46.2498 13.1215 46.2498 12.8532C46.2498 10.3495 44.3333 8.38232 41.8942 8.38232Z" fill="url(#paint0_linear_520_3243)"/>
<path fill-rule="evenodd" clip-rule="evenodd" d="M34.4895 14.1948V20.9012H38.4096V17.3245H41.8941C43.8106 17.3245 45.4658 15.9832 45.9885 14.1948H34.4895Z" fill="#357251"/>
<path fill-rule="evenodd" clip-rule="evenodd" d="M20.552 8.38232V20.9008H24.0365C24.0365 20.9008 24.9077 20.9008 25.3432 20.0067C27.6953 15.1781 28.3922 13.7474 28.3922 13.7474H28.8278V20.9008H32.7479V8.38232H29.2634C29.2634 8.38232 28.3922 8.47174 27.9566 9.2765C25.953 13.3897 24.9077 15.5358 24.9077 15.5358H24.4721V8.38232H20.552Z" fill="#357251"/>
<path fill-rule="evenodd" clip-rule="evenodd" d="M4 20.9008V8.38232H7.9201C7.9201 8.38232 9.05258 8.38232 9.66237 10.1707C11.2304 14.9098 11.4046 15.5358 11.4046 15.5358C11.4046 15.5358 11.7531 14.3733 13.1469 10.1707C13.7567 8.38232 14.8892 8.38232 14.8892 8.38232H18.8093V20.9008H14.8892V14.1945H14.4536L12.2758 20.9008H10.5335L8.35567 14.1945H7.9201V20.9008H4Z" fill="#357251"/>
</g>
<defs>
<linearGradient id="paint0_linear_520_3243" x1="34.0444" y1="8.38232" x2="46.563" y2="14.6416" gradientUnits="userSpaceOnUse">
<stop stop-color="#49A9F6"/>
<stop offset="1" stop-color="#2D5FD0"/>
</linearGradient>
<clipPath id="clip0_520_3243">
<rect width="42.25" height="12.5185" fill="white" transform="translate(4 8.38232)"/>
</clipPath>
</defs>
</svg>
