<svg width="57" height="14" viewBox="0 0 57 14" fill="none" xmlns="http://www.w3.org/2000/svg">
<path d="M56.1628 4.0195C56.0144 3.99004 55.8362 3.97531 55.628 3.96058C55.435 3.94585 55.2121 3.93113 54.9744 3.93113C54.2319 3.93113 53.5484 4.00517 52.9095 4.1234C52.2854 4.24163 51.7212 4.40406 51.2458 4.59633V13.2118H53.5484V5.98566C53.6971 5.92635 53.875 5.88216 54.0684 5.8527C54.2765 5.82324 54.4843 5.80851 54.6925 5.80851C54.8855 5.80851 55.0637 5.82324 55.242 5.83797C55.4202 5.86743 55.5837 5.89728 55.7321 5.94147L56.1628 4.0195ZM48.1266 7.66957L44.3091 8.18669C44.3238 7.62499 44.4132 7.15206 44.5914 6.7679C44.7697 6.38375 45.0074 6.1031 45.3192 5.91082C45.631 5.71854 45.9876 5.61544 46.3887 5.61544C46.7452 5.61544 47.0571 5.68948 47.3099 5.8519C47.5771 5.99959 47.7705 6.23606 47.9188 6.53184C48.0524 6.82722 48.1266 7.21137 48.1266 7.66957ZM50.3546 8.06846C50.3546 7.44784 50.2656 6.88614 50.1021 6.38375C49.9239 5.88136 49.6715 5.45262 49.3445 5.08319C49.0175 4.7285 48.6015 4.44784 48.1114 4.25557C47.6213 4.06329 47.0714 3.96018 46.433 3.96018C45.7646 3.96018 45.1705 4.07842 44.6504 4.30015C44.1304 4.53662 43.685 4.86186 43.3285 5.27547C42.9572 5.68909 42.6897 6.19187 42.4967 6.7679C42.3036 7.34433 42.2143 7.97968 42.2143 8.67435C42.2143 9.36901 42.3184 10.0191 42.5114 10.5955C42.7044 11.172 43.0015 11.6743 43.3879 12.088C43.7739 12.5167 44.2493 12.8415 44.8287 13.0633C45.4081 13.285 46.0617 13.4032 46.8194 13.4032C47.2652 13.4032 47.6959 13.3738 48.1118 13.3145C48.5278 13.2556 48.9138 13.1815 49.2703 13.078C49.6268 12.9745 49.9239 12.871 50.1763 12.738L49.5227 11.0239C49.2998 11.1421 49.0621 11.2456 48.7802 11.3193C48.4979 11.408 48.2155 11.4669 47.9037 11.5263C47.5918 11.5704 47.2947 11.6003 46.9825 11.6003C46.5367 11.6003 46.1359 11.5263 45.7794 11.3786C45.4229 11.2309 45.1405 11.0091 44.9029 10.7138C44.68 10.4184 44.5316 10.049 44.457 9.60548L50.3247 8.80731C50.3394 8.67435 50.3546 8.54139 50.3546 8.42316C50.3546 8.31966 50.3546 8.18669 50.3546 8.06846ZM41.2636 13.211V0H38.9611V13.2114H41.2636V13.211ZM37.5351 13.211V0H35.2325V13.2114H37.5351V13.211ZM32.0686 7.66957L28.2511 8.18669C28.2659 7.62499 28.3552 7.15206 28.5335 6.7679C28.7117 6.38375 28.9494 6.1031 29.2612 5.91082C29.5731 5.71854 29.9296 5.61544 30.3307 5.61544C30.6873 5.61544 30.9991 5.68948 31.2519 5.8519C31.5191 5.99959 31.7125 6.23606 31.8609 6.53184C31.9944 6.82722 32.0686 7.21137 32.0686 7.66957ZM34.297 8.06846C34.297 7.44784 34.2077 6.88614 34.0446 6.38375C33.8663 5.88136 33.6286 5.45262 33.2869 5.08319C32.9603 4.7285 32.544 4.44784 32.0539 4.25557C31.5638 4.06329 31.0139 3.96018 30.3754 3.96018C29.7071 3.96018 29.1129 4.07842 28.5929 4.30015C28.0729 4.53662 27.6274 4.86186 27.2709 5.27547C26.8997 5.68909 26.6321 6.19187 26.4391 6.7679C26.2461 7.34433 26.1567 7.97968 26.1567 8.67435C26.1567 9.36901 26.2608 10.0191 26.4538 10.5955C26.6468 11.172 26.9439 11.6743 27.3303 12.088C27.7164 12.5167 28.1917 12.8415 28.7711 13.0633C29.3506 13.285 30.0041 13.4032 30.7614 13.4032C31.2069 13.4032 31.6379 13.3738 32.0539 13.3145C32.4698 13.2556 32.8558 13.1815 33.2127 13.078C33.5692 12.9745 33.8663 12.871 34.1335 12.738L33.4799 11.0239C33.257 11.1421 33.0193 11.2456 32.7374 11.3193C32.455 11.408 32.1727 11.4669 31.8609 11.5263C31.549 11.5704 31.2519 11.6003 30.9397 11.6003C30.4938 11.6003 30.0931 11.5263 29.7366 11.3786C29.3801 11.2309 29.083 11.0091 28.8601 10.7138C28.6371 10.4184 28.4888 10.049 28.4146 9.60548L34.2822 8.80731C34.297 8.67435 34.3121 8.54139 34.3121 8.42316C34.297 8.31966 34.297 8.18669 34.297 8.06846ZM25.8297 13.0927V11.1863C25.7556 11.2305 25.6515 11.2603 25.5327 11.2751C25.4138 11.3045 25.295 11.3193 25.1761 11.3193C24.9831 11.3193 24.8049 11.2898 24.6414 11.2305C24.4779 11.1712 24.3591 11.0681 24.2701 10.92C24.1808 10.7723 24.1365 10.58 24.1365 10.3288V5.85111H25.8449V4.13694H24.1365V1.46218L21.8639 2.12699V4.15167H20.6903V5.86583H21.8639V10.4912C21.8639 11.4371 22.0721 12.1612 22.5027 12.6341C22.9334 13.1071 23.587 13.3583 24.4635 13.3583C24.6565 13.3583 24.8348 13.3435 25.0131 13.3141C25.1913 13.2993 25.3548 13.2699 25.5031 13.2253C25.6216 13.1815 25.7404 13.1373 25.8297 13.0927ZM19.9916 13.211V4.13773H17.6891V13.211H19.9916ZM20.1703 1.44825C20.1703 1.21178 20.1109 1.00517 19.992 0.827625C19.8732 0.635349 19.7249 0.502386 19.5167 0.384154C19.3237 0.265922 19.1008 0.221736 18.8483 0.221736C18.6107 0.221736 18.3878 0.281049 18.18 0.384154C17.987 0.487657 17.8235 0.635349 17.7047 0.827625C17.5858 1.0195 17.5264 1.21178 17.5264 1.44825C17.5264 1.68471 17.5858 1.89172 17.7047 2.08359C17.8235 2.27547 17.9718 2.42356 18.18 2.52667C18.373 2.63017 18.5959 2.68909 18.8483 2.70422C19.1008 2.70422 19.3237 2.6453 19.5167 2.52667C19.7097 2.40843 19.8732 2.26074 19.992 2.08359C20.0957 1.89132 20.1551 1.68471 20.1703 1.44825ZM16.4417 13.211V7.00437C16.4417 6.35389 16.2934 5.79259 16.011 5.33439C15.7287 4.89092 15.298 4.53622 14.7039 4.29976C14.1244 4.06329 13.3819 3.94506 12.4755 3.94506C11.733 3.94506 11.0495 4.00437 10.4553 4.12261C9.8611 4.24084 9.32634 4.40326 8.83624 4.59554V13.211H11.1388V5.99959C11.2875 5.94028 11.4953 5.88136 11.733 5.8519C11.9706 5.80771 12.2382 5.79259 12.5054 5.79259C13.0254 5.79259 13.4266 5.92555 13.7085 6.17674C13.9761 6.42794 14.1244 6.79736 14.1244 7.25556V13.2257H16.4417V13.211ZM7.61798 12.7532V4.13773H5.31544V11.3197C5.18185 11.3638 5.00359 11.4232 4.78068 11.4526C4.54301 11.4968 4.29058 11.5115 3.97874 11.5115C3.47348 11.5115 3.08747 11.3933 2.83504 11.1716C2.56746 10.9351 2.44903 10.5804 2.44903 10.0927V4.13733H0.146484V10.0482C0.146484 10.8312 0.295228 11.4669 0.577164 11.9693C0.859499 12.4717 1.29018 12.8264 1.8696 13.0629C2.43427 13.2993 3.14728 13.4176 3.97913 13.4028C4.45448 13.4028 4.92982 13.3734 5.37565 13.3141C5.83624 13.2552 6.25217 13.1811 6.63818 13.0776C7.0238 13.0044 7.3504 12.8861 7.61798 12.7532Z" fill="#6BB86F"/>
</svg>
