<svg width="49" height="29" viewBox="0 0 49 29" fill="none" xmlns="http://www.w3.org/2000/svg">
<g clip-path="url(#clip0_520_3247)">
<path fill-rule="evenodd" clip-rule="evenodd" d="M31.4574 8.3064C31.3351 8.28524 31.2127 8.26409 31.0907 8.2417H29.5743C29.5538 8.24653 29.5333 8.25216 29.5128 8.25779L29.5128 8.25779C29.4713 8.26921 29.4296 8.28066 29.387 8.28555C28.2468 8.42224 27.1761 8.74677 26.2736 9.47843C25.237 10.319 24.7365 11.4015 24.8816 12.734C24.9786 13.6242 25.4895 14.2938 26.1958 14.7959C26.5509 15.0484 26.9343 15.2621 27.3178 15.4758C27.5293 15.5937 27.7408 15.7116 27.9476 15.836C28.0274 15.8841 28.108 15.9313 28.1888 15.9785C28.4853 16.152 28.7833 16.3263 29.0405 16.5458C29.5381 16.9704 29.4855 17.6502 28.9391 18.012C28.6873 18.1787 28.3837 18.308 28.0868 18.3629C26.9451 18.5741 25.8427 18.3804 24.7757 17.9557C24.6241 17.8955 24.4741 17.8296 24.3205 17.762L24.3204 17.762C24.2483 17.7303 24.1754 17.6982 24.1012 17.6663C23.9028 18.5843 23.7095 19.4782 23.5163 20.37C23.5309 20.3789 23.5433 20.3871 23.5543 20.3944L23.5544 20.3945L23.5545 20.3945C23.5741 20.4075 23.5896 20.4178 23.6066 20.4248L23.6167 20.4289C23.7029 20.4641 23.7885 20.499 23.8769 20.5279C25.2429 20.9708 26.6438 21.1294 28.0735 20.9978C29.0975 20.9036 30.08 20.6499 30.9485 20.0813C32.3294 19.1771 32.9373 17.8987 32.7322 16.2761C32.6167 15.3587 32.0651 14.6797 31.3084 14.1863C30.9197 13.9328 30.5121 13.7076 30.1042 13.4823L30.1042 13.4823C29.8383 13.3354 29.5724 13.1885 29.3115 13.0337C29.0205 12.8612 28.7303 12.6733 28.4844 12.4453C28.1283 12.1142 28.1335 11.6602 28.5059 11.3452C28.7236 11.161 29.0027 11.0156 29.2789 10.9396C29.9579 10.7532 30.6531 10.8094 31.3321 10.9571C31.6744 11.0318 32.0104 11.135 32.3518 11.2398L32.3519 11.2398C32.5051 11.2869 32.6594 11.3343 32.8159 11.3796L33.0223 10.4267L33.025 10.4142L33.0287 10.3971C33.1446 9.86208 33.2621 9.31958 33.3815 8.7687C33.261 8.73488 33.1435 8.70033 33.0277 8.66632L33.0277 8.6663C32.7757 8.59226 32.5323 8.52072 32.2857 8.46463C32.0119 8.40226 31.7346 8.35432 31.4574 8.3064ZM41.2291 20.8354H44.25C44.25 20.8062 44.25 20.7769 44.2507 20.747C44.2201 20.6159 44.1887 20.485 44.1574 20.3541L44.1573 20.3539L44.1573 20.3537C44.0886 20.0671 44.02 19.7806 43.959 19.4927C43.525 17.4452 43.0925 15.3977 42.66 13.3502C42.4003 12.1209 42.1406 10.8917 41.8807 9.66246C41.8279 9.41279 41.7733 9.1634 41.7185 8.91269C41.6857 8.76265 41.6528 8.61214 41.62 8.46082H38.9679C38.1808 8.46082 37.724 8.76196 37.4189 9.47973L36.1724 12.415L36.1722 12.4156L36.1719 12.4161C35.1794 14.7532 34.187 17.0901 33.1949 19.4269C33.0468 19.7753 32.9004 20.1246 32.75 20.4834L32.75 20.4835L32.7495 20.4845L32.5996 20.842L33.2414 20.8422C34.1412 20.8427 35.0239 20.8431 35.907 20.8354C35.964 20.8347 36.0484 20.744 36.0736 20.6783C36.2602 20.1922 36.4431 19.7039 36.6097 19.2113C36.6652 19.0468 36.7378 18.9869 36.9214 18.9884C38.1327 18.9979 39.344 19.0015 40.5553 18.9862C40.7982 18.9825 40.8678 19.0658 40.9063 19.2807C40.9727 19.6465 41.0514 20.01 41.1308 20.3768L41.1309 20.3772L41.1311 20.3781L41.1313 20.3794C41.1641 20.5307 41.1969 20.6826 41.2291 20.8354ZM39.3396 11.9086L40.2969 16.4389H37.6337L38.2064 14.8798C38.5724 13.8838 38.9365 12.8927 39.3003 11.9013C39.3041 11.9019 39.3078 11.9026 39.3115 11.9033C39.3143 11.9038 39.3172 11.9044 39.32 11.9049C39.3264 11.9062 39.3329 11.9075 39.3396 11.9086ZM4.48767 8.46157L6.20463 8.46141H6.20471C7.34944 8.46125 8.49428 8.46108 9.63946 8.46157C10.4539 8.46157 11.0418 8.92863 11.1958 9.72461C11.4953 11.2716 11.7902 12.8195 12.0852 14.3676C12.2197 15.0739 12.3543 15.7802 12.4893 16.4864C12.5026 16.5575 12.5175 16.6283 12.5356 16.7142L12.5356 16.7142L12.5582 16.8219C12.5735 16.7933 12.5873 16.769 12.5996 16.7473C12.6228 16.7065 12.6406 16.6751 12.6537 16.6421L12.9561 15.8869L12.9562 15.8865C13.9217 13.4756 14.8872 11.0644 15.8478 8.65088C15.9056 8.50543 15.9774 8.45572 16.1366 8.45718C16.842 8.46288 17.5478 8.46234 18.2534 8.4618H18.2534C18.5439 8.46158 18.8344 8.46136 19.1249 8.46157C19.1644 8.46157 19.204 8.46377 19.2497 8.46632C19.2784 8.46792 19.3096 8.46966 19.3448 8.47107L19.1825 8.85715L19.1825 8.85716C19.0709 9.12273 18.9618 9.38254 18.8517 9.64202L18.0419 11.5484C16.7568 14.5738 15.4717 17.599 14.1922 20.6271C14.1182 20.8018 14.0279 20.8479 13.8487 20.8464C12.8677 20.8384 11.8859 20.8354 10.9048 20.8486C10.6968 20.8515 10.6294 20.7792 10.5813 20.595C10.2705 19.3992 9.95764 18.2037 9.64477 17.0082L9.64475 17.0081C9.12055 15.005 8.5963 13.0017 8.08163 10.9964C7.93059 10.4088 7.6285 10.0075 7.06208 9.76116C6.15434 9.36646 5.21179 9.08944 4.25 8.86431L4.48767 8.46157ZM20.0567 11.5575C19.387 14.6473 18.7173 17.7371 18.0439 20.8429H18.3112C18.5561 20.8429 18.801 20.8421 19.0459 20.8413C19.6931 20.8393 20.3403 20.8373 20.987 20.8495C21.2358 20.8538 21.3209 20.7793 21.3713 20.5425C21.9826 17.6855 22.6018 14.8301 23.2209 11.975C23.3396 11.4276 23.4583 10.8802 23.5769 10.3329C23.6608 9.94577 23.7443 9.55867 23.8285 9.16866C23.8781 8.9386 23.928 8.70753 23.9783 8.47485H20.7249C20.5021 9.5028 20.2794 10.5302 20.0567 11.5575Z" fill="white"/>
</g>
<defs>
<clipPath id="clip0_520_3247">
<rect width="40" height="12.8" fill="white" transform="translate(4.25 8.2417)"/>
</clipPath>
</defs>
</svg>
